<?xml version="1.0" encoding="utf-8"?>
<svg xmlns="http://www.w3.org/2000/svg" xmlns:xlink="http://www.w3.org/1999/xlink" xmlns:sketch="http://www.bohemiancoding.com/sketch/ns" width="1013px" height="707px" viewBox="0 0 1013 707" version="1.1">  
  <!-- Generator: Sketch 3.3.3 (12081) - http://www.bohemiancoding.com/sketch -->  
  <title>RED-189 (3)</title>  
  <desc>Created with Sketch.</desc>  
  <defs> 
    <path id="path-1" d="M248.998983,101 C208.130471,101 174.999995,134.124061 174.999996,175.000736 L175,391.0035 C175,393.762991 172.768286,396 170.003402,396 L5.99659807,396 C3.23705315,396 1,393.760758 1,390.993097 L1,99.9914686 C1,44.7677054 45.7734344,0 101.001758,0 L604.998221,0 C660.227667,0 704.999982,44.7763923 704.999985,99.9914686 L705,390.993097 C705,393.758333 702.759619,396 699.99793,396 L539.00207,396 C536.239503,396 533.999738,393.763635 533.999415,391.000889 L533.999415,391.000889 L533.999426,175.000286 C533.999429,134.131057 500.876993,101 459.991135,101 L363,101 L248.998983,101 Z"/>  
    <path id="path-2" d="M252.993124,215 C184.513613,215 129,270.515387 129,338.990156 L129,629.990613 C129,632.757221 126.760963,635 124.002382,635 L4.99761772,635 C2.23750967,635 0,632.76688 0,630.000522 L0,0.99999998 L1011,0.999999975 L1011,630.000522 C1011,632.761657 1008.77096,635 1006.00333,635 L885.996673,635 C883.237087,635 881,632.765517 881,629.990613 L881,338.990156 C881,270.512284 825.474668,215 757.006876,215 L252.993124,215 Z"/> 
  </defs>  
  <g id="Page-1" stroke="none" stroke-width="1" fill="none" fill-rule="evenodd" sketch:type="MSPage"> 
    <g id="RED" sketch:type="MSLayerGroup" transform="translate(1.000000, 0.000000)"> 
      <g id="Клуб"> 
        <g id="Танцпол" transform="translate(351.000000, 364.000000)" stroke="#E2E2E2" fill="#FFFFFF" sketch:type="MSShapeGroup"> 
          <path d="M311,266.006301 C311,268.764245 308.762529,271 306.004796,271 L4.99520448,271 C2.23642922,271 -5.68434189e-14,268.75872 -5.68434189e-14,266.006301 L-5.68434189e-14,50.001634 C-5.68434189e-14,22.3864941 22.3819751,0 49.9998973,0 L261.000103,0 C288.614283,0 311,22.3787519 311,50.001634 L311,266.006301 Z"/> 
        </g>  
        <g id="2-этаж" transform="translate(153.000000, 239.000000)"> 
          <g> 
            <use stroke="#E2E2E2" stroke-width="1" fill="#FFFFFF" fill-rule="evenodd" sketch:type="MSShapeGroup" xlink:href="#path-1"/>  
            <use stroke="none" fill="none" xlink:href="#path-1"/>  
            <use stroke="none" fill="none" xlink:href="#path-1"/> 
          </g> 
        </g>  
        <g id="3-этаж"> 
          <g> 
            <use stroke="#E2E2E2" stroke-width="1" fill="#FFFFFF" fill-rule="evenodd" sketch:type="MSShapeGroup" xlink:href="#path-2"/>  
            <use stroke="none" fill="none" xlink:href="#path-2"/>  
            <use stroke="none" fill="none" xlink:href="#path-2"/> 
          </g> 
        </g>  
        <path d="M207,586 C204.239,586 202,583.762 202,581 L202,571 C202,568.239 204.239,566 207,566 L217,566 C219.762,566 222,568.239 222,571 L222,581 C222,583.762 219.762,586 217,586 L207,586 L207,586 Z" id="Rectangle-1" stroke="#EAEAEA" sketch:type="MSShapeGroup"/>  
        <path d="M202,505 L202,495 C202,492.239 204.239,490 207,490 L217,490 C219.762,490 222,492.239 222,495 L222,505 C222,507.762 219.762,510 217,510 L207,510 C204.239,510 202,507.762 202,505 Z" id="Rectangle-11" stroke="#EAEAEA" sketch:type="MSShapeGroup"/>  
        <path d="M207,435 C204.239,435 202,432.72546 202,430 L202,408 C202,405.27454 204.239,403 207,403 L217,403 C219.762,403 222,405.27454 222,408 L222,430 C222,432.72546 219.762,435 217,435 L207,435 L207,435 Z" id="Rectangle-3" stroke="#EAEAEA" sketch:type="MSShapeGroup"/>  
        <path d="M808,581 L808,571 C808,568.239 805.732314,566 803,566 L793,566 C790.267686,566 788,568.239 788,571 L788,581 C788,583.761 790.267686,586 793,586 L803,586 C805.732314,586 808,583.761 808,581 Z" id="Rectangle-12" stroke="#EAEAEA" sketch:type="MSShapeGroup"/>  
        <path d="M803,514 C805.732314,514 808,511.761 808,509 L808,499 C808,496.239 805.732314,494 803,494 L793,494 C790.267686,494 788,496.239 788,499 L788,509 C788,511.761 790.267686,514 793,514 L803,514 L803,514 Z" id="Rectangle-13" stroke="#EAEAEA" sketch:type="MSShapeGroup"/>  
        <path d="M803,441 C805.761,441 808,438.740066 808,436 L808,408 C808,405.258925 805.761,403 803,403 L793,403 C790.238,403 788,405.258925 788,408 L788,436 C788,438.740066 790.238,441 793,441 L803,441 L803,441 Z" id="Rectangle-31" stroke="#EAEAEA" sketch:type="MSShapeGroup"/>  
        <path d="M929,592 C929,594.761 931.24,597 934,597 L944,597 C946.76,597 949,594.761 949,592 L949,532 C949,529.239 946.76,527 944,527 L934,527 C931.24,527 929,529.239 929,532 L929,592 L929,592 Z" id="Rectangle-25" stroke="#E2E2E2" sketch:type="MSShapeGroup"/>  
        <path d="M929,475 C929,477.761 931.24,480 934,480 L944,480 C946.76,480 949,477.761 949,475 L949,415 C949,412.238 946.76,410 944,410 L934,410 C931.24,410 929,412.238 929,415 L929,475 L929,475 Z" id="Rectangle-25-Copy" stroke="#E2E2E2" sketch:type="MSShapeGroup"/>  
        <path d="M929,361.892857 C929,364.714043 931.24,367 934,367 L944,367 C946.76,367 949,364.714043 949,361.892857 L949,229.107143 C949,226.286979 946.76,224 944,224 L934,224 C931.24,224 929,226.286979 929,229.107143 L929,361.892857 L929,361.892857 Z" id="Rectangle-25-Copy-5" stroke="#E2E2E2" sketch:type="MSShapeGroup"/>  
        <path d="M68,592 C68,594.761 70.239,597 73,597 L83,597 C85.761,597 88,594.761 88,592 L88,532 C88,529.239 85.761,527 83,527 L73,527 C70.239,527 68,529.239 68,532 L68,592 L68,592 Z" id="Rectangle-251" stroke="#E2E2E2" sketch:type="MSShapeGroup"/>  
        <path d="M68,476 C68,478.761 70.239,481 73,481 L83,481 C85.761,481 88,478.761 88,476 L88,416 C88,413.238 85.761,411 83,411 L73,411 C70.239,411 68,413.238 68,416 L68,476 L68,476 Z" id="Rectangle-25-Copy1" stroke="#E2E2E2" sketch:type="MSShapeGroup"/>  
        <path d="M68,361.892857 C68,364.713021 70.239,367 73,367 L83,367 C85.761,367 88,364.713021 88,361.892857 L88,229.107143 C88,226.286979 85.761,224 83,224 L73,224 C70.239,224 68,226.286979 68,229.107143 L68,361.892857 L68,361.892857 Z" id="Rectangle-25-Copy-51" stroke="#E2E2E2" sketch:type="MSShapeGroup"/>  
        <path d="M437,158 C437,160.761 439.238,163 442,163 L572,163 C574.761,163 577,160.761 577,158 L577,148 C577,145.239 574.761,143 572,143 L442,143 C439.238,143 437,145.239 437,148 L437,158 L437,158 Z" id="Rectangle-311" stroke="#E2E2E2" sketch:type="MSShapeGroup"/>  
        <path d="M671.857143,143 C669.175029,143 667,145.239 667,148 L667,178 C667,180.761 669.175029,183 671.857143,183 L730.142857,183 C732.824971,183 735,180.761 735,178 L735,148 C735,145.239 732.824971,143 730.142857,143 L671.857143,143 L671.857143,143 Z" id="Rectangle-32" stroke="#E2E2E2" sketch:type="MSShapeGroup"/>  
        <path d="M280,143 C277.239,143 275,145.239 275,148 L275,178 C275,180.761 277.239,183 280,183 L340,183 C342.761,183 345,180.761 345,178 L345,148 C345,145.239 342.761,143 340,143 L280,143 L280,143 Z" id="Rectangle-32-Copy-5" stroke="#E2E2E2" sketch:type="MSShapeGroup"/>  
        <path d="M299.857143,75 C297.174057,75 295,77.238 295,80 L295,90 C295,92.761 297.174057,95 299.857143,95 L358.142857,95 C360.824971,95 363,92.761 363,90 L363,80 C363,77.238 360.824971,75 358.142857,75 L299.857143,75 L299.857143,75 Z" id="Rectangle-32-Copy-2" stroke="#E2E2E2" sketch:type="MSShapeGroup"/>  
        <path d="M475.857143,75 C473.190571,75 471,77.239 471,80 L471,90 C471,92.761 473.190571,95 475.857143,95 L534.142857,95 C536.809429,95 539,92.761 539,90 L539,80 C539,77.239 536.809429,75 534.142857,75 L475.857143,75 L475.857143,75 Z" id="Rectangle-32-Copy-3" stroke="#E2E2E2" sketch:type="MSShapeGroup"/>  
        <path d="M651.857143,75 C649.175029,75 647,77.2383358 647,80 L647,90 C647,92.7606641 649.175029,95 651.857143,95 L710.142857,95 C712.825943,95 715,92.7606641 715,90 L715,80 C715,77.2383358 712.825943,75 710.142857,75 L651.857143,75 L651.857143,75 Z" id="Rectangle-32-Copy-4" stroke="#E2E2E2" sketch:type="MSShapeGroup"/>  
        <path d="M475.0354,35 L471.429932,25.6943359 L472.762939,25.6943359 L475.181396,32.4545898 C475.376059,32.9962592 475.53898,33.5040666 475.670166,33.9780273 C475.814047,33.4702123 475.9812,32.9624049 476.171631,32.4545898 L478.685303,25.6943359 L479.942139,25.6943359 L476.298584,35 L475.0354,35 Z M481.256104,35 L481.256104,25.6943359 L482.487549,25.6943359 L482.487549,35 L481.256104,35 Z M484.658447,35 L484.658447,25.6943359 L488.168701,25.6943359 C488.786543,25.6943359 489.258381,25.723958 489.584229,25.7832031 C490.041262,25.8593754 490.424233,26.0043121 490.733154,26.2180176 C491.042075,26.4317231 491.290689,26.7311179 491.479004,27.1162109 C491.667319,27.501304 491.761475,27.9244769 491.761475,28.3857422 C491.761475,29.1770873 491.509687,29.8467583 491.006104,30.3947754 C490.50252,30.9427925 489.592699,31.2167969 488.276611,31.2167969 L485.889893,31.2167969 L485.889893,35 L484.658447,35 Z M485.889893,30.1186523 L488.295654,30.1186523 C489.091231,30.1186523 489.656167,29.9705418 489.990479,29.6743164 C490.32479,29.378091 490.491943,28.9612657 490.491943,28.4238281 C490.491943,28.0345033 490.393556,27.7012546 490.196777,27.4240723 C489.999999,27.1468899 489.740806,26.9638676 489.419189,26.875 C489.211832,26.8199867 488.82886,26.7924805 488.270264,26.7924805 L485.889893,26.7924805 L485.889893,30.1186523 Z M496.249268,32.543457 L497.391846,32.3911133 C497.523031,33.0385775 497.746255,33.5051255 498.061523,33.7907715 C498.376792,34.0764174 498.760821,34.2192383 499.213623,34.2192383 C499.751061,34.2192383 500.204914,34.0330422 500.575195,33.6606445 C500.945477,33.2882468 501.130615,32.8269884 501.130615,32.2768555 C501.130615,31.7521133 500.95923,31.319419 500.616455,30.9787598 C500.27368,30.6381005 499.837812,30.4677734 499.308838,30.4677734 C499.093016,30.4677734 498.824302,30.5100907 498.502686,30.5947266 L498.629639,29.5917969 C498.705811,29.6002605 498.767171,29.6044922 498.813721,29.6044922 C499.300377,29.6044922 499.738361,29.4775403 500.127686,29.2236328 C500.51701,28.9697253 500.71167,28.5782904 500.71167,28.0493164 C500.71167,27.630369 500.569907,27.2833673 500.286377,27.0083008 C500.002847,26.7332343 499.636802,26.5957031 499.188232,26.5957031 C498.743894,26.5957031 498.373618,26.7353502 498.077393,27.0146484 C497.781167,27.2939467 497.590739,27.7128878 497.506104,28.2714844 L496.363525,28.0683594 C496.503175,27.302405 496.820554,26.7089051 497.315674,26.2878418 C497.810793,25.8667785 498.42651,25.65625 499.162842,25.65625 C499.670657,25.65625 500.138263,25.765217 500.565674,25.9831543 C500.993085,26.2010916 501.319986,26.4983705 501.546387,26.875 C501.772788,27.2516295 501.885986,27.6515278 501.885986,28.074707 C501.885986,28.4767273 501.778077,28.8427718 501.562256,29.1728516 C501.346434,29.5029313 501.026939,29.7652985 500.60376,29.9599609 C501.153893,30.0869147 501.581297,30.3503398 501.885986,30.7502441 C502.190675,31.1501485 502.343018,31.6505504 502.343018,32.2514648 C502.343018,33.0639689 502.046797,33.7526827 501.454346,34.317627 C500.861895,34.8825712 500.112879,35.1650391 499.207275,35.1650391 C498.39054,35.1650391 497.712405,34.9217147 497.172852,34.4350586 C496.633298,33.9484025 496.32544,33.317875 496.249268,32.543457 L496.249268,32.543457 Z M509.109619,31.0771484 L509.109619,32.0166016 L511.48999,32.0166016 C511.41805,32.7487016 511.22868,33.2977684 510.921875,33.6638184 C510.61507,34.0298684 510.188723,34.2128906 509.642822,34.2128906 C508.677974,34.2128906 508.108806,33.6543025 507.935303,32.5371094 L506.818115,32.6831055 C506.936605,33.4236691 507.244464,34.0203428 507.741699,34.4731445 C508.238935,34.9259463 508.889563,35.1523438 509.693604,35.1523438 C510.649989,35.207357 511.390541,34.9037305 511.915283,34.2414551 C512.440025,33.5791796 512.689697,32.7085015 512.664307,31.6293945 C512.664307,30.5333604 512.39136,29.6722037 511.845459,29.0458984 C511.299558,28.4195932 510.554774,28.1064453 509.611084,28.1064453 C508.857825,28.1064453 508.248456,28.3063945 507.782959,28.7062988 C507.317462,29.1062032 507.033936,29.6214161 506.932373,30.2519531 L508.043213,30.4296875 C508.229412,29.5113886 508.764725,29.0522461 509.64917,29.0522461 C510.156985,29.0522461 510.572752,29.2395001 510.896484,29.6140137 C511.220216,29.9885273 511.41805,30.476234 511.48999,31.0771484 L509.109619,31.0771484 Z M513.134033,28.2587891 L518.612061,28.2587891 L518.612061,29.2045898 L516.441162,29.2045898 L516.441162,35 L515.304932,35 L515.304932,29.2045898 L513.134033,29.2045898 L513.134033,28.2587891 Z M523.956787,34.168457 C523.533608,34.5281594 523.126304,34.7820631 522.734863,34.9301758 C522.343423,35.0782885 521.923423,35.1523438 521.474854,35.1523438 C520.73429,35.1523438 520.165122,34.9714374 519.767334,34.6096191 C519.369546,34.2478009 519.170654,33.7854846 519.170654,33.2226562 C519.170654,32.8925765 519.245767,32.5910658 519.395996,32.3181152 C519.546225,32.0451647 519.743,31.8261727 519.986328,31.6611328 C520.229656,31.4960929 520.503661,31.3712569 520.80835,31.2866211 C521.032635,31.227376 521.371173,31.1702477 521.823975,31.1152344 C522.746505,31.0052078 523.425698,30.8740242 523.861572,30.7216797 C523.865804,30.5651034 523.86792,30.4656578 523.86792,30.4233398 C523.86792,29.9578427 523.760011,29.6298838 523.544189,29.4394531 C523.252196,29.1813138 522.818444,29.0522461 522.24292,29.0522461 C521.705482,29.0522461 521.308758,29.1464021 521.052734,29.3347168 C520.796711,29.5230315 520.607341,29.8562802 520.484619,30.3344727 L519.367432,30.1821289 C519.468995,29.7039364 519.636148,29.3177912 519.868896,29.0236816 C520.101645,28.7295721 520.438067,28.5031746 520.878174,28.3444824 C521.31828,28.1857902 521.828203,28.1064453 522.407959,28.1064453 C522.983483,28.1064453 523.451089,28.174153 523.810791,28.3095703 C524.170493,28.4449877 524.434976,28.6153147 524.604248,28.8205566 C524.77352,29.0257986 524.892008,29.2849919 524.959717,29.5981445 C524.997803,29.792807 525.016846,30.1440404 525.016846,30.6518555 L525.016846,32.175293 C525.016846,33.2374728 525.041178,33.9092597 525.089844,34.1906738 C525.138509,34.472088 525.234781,34.7418607 525.378662,35 L524.185303,35 C524.066813,34.7630196 523.990641,34.4858414 523.956787,34.168457 L523.956787,34.168457 Z M523.861572,31.6166992 C523.446857,31.7859709 522.824793,31.9298497 521.995361,32.0483398 C521.525632,32.1160485 521.193442,32.1922196 520.998779,32.2768555 C520.804117,32.3614913 520.653891,32.4852694 520.548096,32.6481934 C520.442301,32.8111174 520.389404,32.9920237 520.389404,33.190918 C520.389404,33.495607 520.504719,33.7495107 520.735352,33.9526367 C520.965984,34.1557627 521.303465,34.2573242 521.747803,34.2573242 C522.187909,34.2573242 522.579344,34.1610524 522.922119,33.9685059 C523.264894,33.7759593 523.516682,33.5125342 523.67749,33.1782227 C523.800212,32.9200833 523.861572,32.5392278 523.861572,32.0356445 L523.861572,31.6166992 Z M530.863037,28.2587891 L530.863037,31.1723633 C531.226971,31.1723633 531.482991,31.1025398 531.631104,30.9628906 C531.779216,30.8232415 531.995034,30.4169956 532.278564,29.7441406 C532.545167,29.10514 532.78426,28.6967782 532.99585,28.519043 C533.203207,28.3455395 533.533282,28.2587891 533.986084,28.2587891 L534.405029,28.2587891 L534.405029,29.2045898 L534.093994,29.1982422 C533.789305,29.1982422 533.594646,29.2426753 533.51001,29.331543 C533.421142,29.4246424 533.285727,29.7018206 533.10376,30.1630859 C532.934488,30.6031923 532.777914,30.9078768 532.634033,31.0771484 C532.490152,31.2464201 532.265871,31.4008782 531.961182,31.5405273 C532.456301,31.6717129 532.938718,32.1287396 533.408447,32.9116211 L534.665283,35 L533.408447,35 L532.18335,32.9116211 C531.933674,32.4884419 531.71574,32.2112637 531.529541,32.0800781 C531.343342,31.9488926 531.121176,31.8833008 530.863037,31.8833008 L530.863037,35 L529.695068,35 L529.695068,31.8833008 C529.441161,31.8833008 529.221111,31.9478346 529.034912,32.0769043 C528.848713,32.205974 528.630779,32.4842101 528.381104,32.9116211 L527.156006,35 L525.89917,35 L527.149658,32.9116211 C527.623619,32.1287396 528.108152,31.6717129 528.603271,31.5405273 C528.264728,31.383951 528.027751,31.213624 527.892334,31.029541 C527.756917,30.8454581 527.553794,30.4064162 527.282959,29.7124023 C527.18986,29.4796538 527.090414,29.335775 526.984619,29.2807617 C526.874593,29.2257484 526.711671,29.1982422 526.49585,29.1982422 C526.440836,29.1982422 526.328696,29.2003581 526.159424,29.2045898 L526.159424,28.2587891 L526.318115,28.2587891 C526.758222,28.2587891 527.068196,28.2852374 527.248047,28.3381348 C527.427898,28.3910322 527.588704,28.503173 527.730469,28.6745605 C527.872234,28.8459481 528.057372,29.2024712 528.285889,29.7441406 C528.565187,30.408532 528.777831,30.812662 528.923828,30.956543 C529.069825,31.1004239 529.326902,31.1723633 529.695068,31.1723633 L529.695068,28.2587891 L530.863037,28.2587891 Z" id="VIP-3-этаж" fill="#666666" sketch:type="MSShapeGroup"/>  
        <path d="M475.0354,273 L471.429932,263.694336 L472.762939,263.694336 L475.181396,270.45459 C475.376059,270.996259 475.53898,271.504067 475.670166,271.978027 C475.814047,271.470212 475.9812,270.962405 476.171631,270.45459 L478.685303,263.694336 L479.942139,263.694336 L476.298584,273 L475.0354,273 Z M481.256104,273 L481.256104,263.694336 L482.487549,263.694336 L482.487549,273 L481.256104,273 Z M484.658447,273 L484.658447,263.694336 L488.168701,263.694336 C488.786543,263.694336 489.258381,263.723958 489.584229,263.783203 C490.041262,263.859375 490.424233,264.004312 490.733154,264.218018 C491.042075,264.431723 491.290689,264.731118 491.479004,265.116211 C491.667319,265.501304 491.761475,265.924477 491.761475,266.385742 C491.761475,267.177087 491.509687,267.846758 491.006104,268.394775 C490.50252,268.942792 489.592699,269.216797 488.276611,269.216797 L485.889893,269.216797 L485.889893,273 L484.658447,273 Z M485.889893,268.118652 L488.295654,268.118652 C489.091231,268.118652 489.656167,267.970542 489.990479,267.674316 C490.32479,267.378091 490.491943,266.961266 490.491943,266.423828 C490.491943,266.034503 490.393556,265.701255 490.196777,265.424072 C489.999999,265.14689 489.740806,264.963868 489.419189,264.875 C489.211832,264.819987 488.82886,264.79248 488.270264,264.79248 L485.889893,264.79248 L485.889893,268.118652 Z M502.247803,271.901855 L502.247803,273 L496.096924,273 C496.08846,272.724934 496.132893,272.46045 496.230225,272.206543 C496.386801,271.787596 496.637531,271.375002 496.982422,270.96875 C497.327313,270.562498 497.825599,270.092776 498.477295,269.55957 C499.488693,268.730139 500.172117,268.073163 500.527588,267.588623 C500.883058,267.104083 501.060791,266.645998 501.060791,266.214355 C501.060791,265.761554 500.898927,265.37964 500.575195,265.068604 C500.251463,264.757567 499.829348,264.602051 499.308838,264.602051 C498.758705,264.602051 498.318605,264.767088 497.988525,265.097168 C497.658446,265.427248 497.491292,265.884274 497.487061,266.468262 L496.312744,266.347656 C496.393148,265.471675 496.695717,264.80412 497.220459,264.344971 C497.745201,263.885821 498.449784,263.65625 499.334229,263.65625 C500.227137,263.65625 500.933835,263.903806 501.454346,264.398926 C501.974856,264.894045 502.235107,265.507646 502.235107,266.239746 C502.235107,266.612144 502.158936,266.978188 502.006592,267.337891 C501.854247,267.697593 501.601402,268.076333 501.248047,268.474121 C500.894692,268.87191 500.30754,269.417803 499.486572,270.111816 C498.801022,270.68734 498.360922,271.077717 498.16626,271.282959 C497.971597,271.488201 497.810792,271.694498 497.683838,271.901855 L502.247803,271.901855 Z M509.109619,269.077148 L509.109619,270.016602 L511.48999,270.016602 C511.41805,270.748702 511.22868,271.297768 510.921875,271.663818 C510.61507,272.029868 510.188723,272.212891 509.642822,272.212891 C508.677974,272.212891 508.108806,271.654302 507.935303,270.537109 L506.818115,270.683105 C506.936605,271.423669 507.244464,272.020343 507.741699,272.473145 C508.238935,272.925946 508.889563,273.152344 509.693604,273.152344 C510.649989,273.207357 511.390541,272.903731 511.915283,272.241455 C512.440025,271.57918 512.689697,270.708501 512.664307,269.629395 C512.664307,268.53336 512.39136,267.672204 511.845459,267.045898 C511.299558,266.419593 510.554774,266.106445 509.611084,266.106445 C508.857825,266.106445 508.248456,266.306394 507.782959,266.706299 C507.317462,267.106203 507.033936,267.621416 506.932373,268.251953 L508.043213,268.429688 C508.229412,267.511389 508.764725,267.052246 509.64917,267.052246 C510.156985,267.052246 510.572752,267.2395 510.896484,267.614014 C511.220216,267.988527 511.41805,268.476234 511.48999,269.077148 L509.109619,269.077148 Z M513.134033,266.258789 L518.612061,266.258789 L518.612061,267.20459 L516.441162,267.20459 L516.441162,273 L515.304932,273 L515.304932,267.20459 L513.134033,267.20459 L513.134033,266.258789 Z M523.956787,272.168457 C523.533608,272.528159 523.126304,272.782063 522.734863,272.930176 C522.343423,273.078289 521.923423,273.152344 521.474854,273.152344 C520.73429,273.152344 520.165122,272.971437 519.767334,272.609619 C519.369546,272.247801 519.170654,271.785485 519.170654,271.222656 C519.170654,270.892576 519.245767,270.591066 519.395996,270.318115 C519.546225,270.045165 519.743,269.826173 519.986328,269.661133 C520.229656,269.496093 520.503661,269.371257 520.80835,269.286621 C521.032635,269.227376 521.371173,269.170248 521.823975,269.115234 C522.746505,269.005208 523.425698,268.874024 523.861572,268.72168 C523.865804,268.565103 523.86792,268.465658 523.86792,268.42334 C523.86792,267.957843 523.760011,267.629884 523.544189,267.439453 C523.252196,267.181314 522.818444,267.052246 522.24292,267.052246 C521.705482,267.052246 521.308758,267.146402 521.052734,267.334717 C520.796711,267.523032 520.607341,267.85628 520.484619,268.334473 L519.367432,268.182129 C519.468995,267.703936 519.636148,267.317791 519.868896,267.023682 C520.101645,266.729572 520.438067,266.503175 520.878174,266.344482 C521.31828,266.18579 521.828203,266.106445 522.407959,266.106445 C522.983483,266.106445 523.451089,266.174153 523.810791,266.30957 C524.170493,266.444988 524.434976,266.615315 524.604248,266.820557 C524.77352,267.025799 524.892008,267.284992 524.959717,267.598145 C524.997803,267.792807 525.016846,268.14404 525.016846,268.651855 L525.016846,270.175293 C525.016846,271.237473 525.041178,271.90926 525.089844,272.190674 C525.138509,272.472088 525.234781,272.741861 525.378662,273 L524.185303,273 C524.066813,272.76302 523.990641,272.485841 523.956787,272.168457 L523.956787,272.168457 Z M523.861572,269.616699 C523.446857,269.785971 522.824793,269.92985 521.995361,270.04834 C521.525632,270.116049 521.193442,270.19222 520.998779,270.276855 C520.804117,270.361491 520.653891,270.485269 520.548096,270.648193 C520.442301,270.811117 520.389404,270.992024 520.389404,271.190918 C520.389404,271.495607 520.504719,271.749511 520.735352,271.952637 C520.965984,272.155763 521.303465,272.257324 521.747803,272.257324 C522.187909,272.257324 522.579344,272.161052 522.922119,271.968506 C523.264894,271.775959 523.516682,271.512534 523.67749,271.178223 C523.800212,270.920083 523.861572,270.539228 523.861572,270.035645 L523.861572,269.616699 Z M530.863037,266.258789 L530.863037,269.172363 C531.226971,269.172363 531.482991,269.10254 531.631104,268.962891 C531.779216,268.823241 531.995034,268.416996 532.278564,267.744141 C532.545167,267.10514 532.78426,266.696778 532.99585,266.519043 C533.203207,266.345539 533.533282,266.258789 533.986084,266.258789 L534.405029,266.258789 L534.405029,267.20459 L534.093994,267.198242 C533.789305,267.198242 533.594646,267.242675 533.51001,267.331543 C533.421142,267.424642 533.285727,267.701821 533.10376,268.163086 C532.934488,268.603192 532.777914,268.907877 532.634033,269.077148 C532.490152,269.24642 532.265871,269.400878 531.961182,269.540527 C532.456301,269.671713 532.938718,270.12874 533.408447,270.911621 L534.665283,273 L533.408447,273 L532.18335,270.911621 C531.933674,270.488442 531.71574,270.211264 531.529541,270.080078 C531.343342,269.948893 531.121176,269.883301 530.863037,269.883301 L530.863037,273 L529.695068,273 L529.695068,269.883301 C529.441161,269.883301 529.221111,269.947835 529.034912,270.076904 C528.848713,270.205974 528.630779,270.48421 528.381104,270.911621 L527.156006,273 L525.89917,273 L527.149658,270.911621 C527.623619,270.12874 528.108152,269.671713 528.603271,269.540527 C528.264728,269.383951 528.027751,269.213624 527.892334,269.029541 C527.756917,268.845458 527.553794,268.406416 527.282959,267.712402 C527.18986,267.479654 527.090414,267.335775 526.984619,267.280762 C526.874593,267.225748 526.711671,267.198242 526.49585,267.198242 C526.440836,267.198242 526.328696,267.200358 526.159424,267.20459 L526.159424,266.258789 L526.318115,266.258789 C526.758222,266.258789 527.068196,266.285237 527.248047,266.338135 C527.427898,266.391032 527.588704,266.503173 527.730469,266.674561 C527.872234,266.845948 528.057372,267.202471 528.285889,267.744141 C528.565187,268.408532 528.777831,268.812662 528.923828,268.956543 C529.069825,269.100424 529.326902,269.172363 529.695068,269.172363 L529.695068,266.258789 L530.863037,266.258789 Z" id="VIP-2-этаж" fill="#666666" sketch:type="MSShapeGroup"/>  
        <path d="M484.065918,507.305664 L484.065918,499.098145 L481,499.098145 L481,498 L488.375977,498 L488.375977,499.098145 L485.297363,499.098145 L485.297363,507.305664 L484.065918,507.305664 Z M493.308105,506.474121 C492.884926,506.833823 492.477622,507.087727 492.086182,507.23584 C491.694741,507.383953 491.274742,507.458008 490.826172,507.458008 C490.085608,507.458008 489.516441,507.277101 489.118652,506.915283 C488.720864,506.553465 488.521973,506.091149 488.521973,505.52832 C488.521973,505.198241 488.597086,504.89673 488.747314,504.623779 C488.897543,504.350829 489.094318,504.131837 489.337646,503.966797 C489.580975,503.801757 489.854979,503.676921 490.159668,503.592285 C490.383953,503.53304 490.722491,503.475912 491.175293,503.420898 C492.097824,503.310872 492.777016,503.179688 493.212891,503.027344 C493.217122,502.870767 493.219238,502.771322 493.219238,502.729004 C493.219238,502.263507 493.111329,501.935548 492.895508,501.745117 C492.603514,501.486978 492.169762,501.35791 491.594238,501.35791 C491.056801,501.35791 490.660076,501.452066 490.404053,501.640381 C490.148029,501.828696 489.958659,502.161944 489.835938,502.640137 L488.71875,502.487793 C488.820313,502.0096 488.987466,501.623455 489.220215,501.329346 C489.452963,501.035236 489.789386,500.808839 490.229492,500.650146 C490.669599,500.491454 491.179522,500.412109 491.759277,500.412109 C492.334801,500.412109 492.802407,500.479817 493.162109,500.615234 C493.521812,500.750652 493.786295,500.920979 493.955566,501.126221 C494.124838,501.331463 494.243326,501.590656 494.311035,501.903809 C494.349121,502.098471 494.368164,502.449704 494.368164,502.95752 L494.368164,504.480957 C494.368164,505.543137 494.392497,506.214924 494.441162,506.496338 C494.489828,506.777752 494.5861,507.047525 494.72998,507.305664 L493.536621,507.305664 C493.418131,507.068684 493.34196,506.791505 493.308105,506.474121 L493.308105,506.474121 Z M493.212891,503.922363 C492.798175,504.091635 492.176111,504.235514 491.34668,504.354004 C490.876951,504.421713 490.54476,504.497884 490.350098,504.58252 C490.155435,504.667155 490.005209,504.790933 489.899414,504.953857 C489.793619,505.116781 489.740723,505.297688 489.740723,505.496582 C489.740723,505.801271 489.856037,506.055175 490.08667,506.258301 C490.317303,506.461427 490.654783,506.562988 491.099121,506.562988 C491.539227,506.562988 491.930662,506.466716 492.273438,506.27417 C492.616213,506.081623 492.868,505.818198 493.028809,505.483887 C493.151531,505.225747 493.212891,504.844892 493.212891,504.341309 L493.212891,503.922363 Z M496.145508,500.564453 L497.288086,500.564453 L497.288086,503.370117 L500.455566,503.370117 L500.455566,500.564453 L501.598145,500.564453 L501.598145,507.305664 L500.455566,507.305664 L500.455566,504.315918 L497.288086,504.315918 L497.288086,507.305664 L496.145508,507.305664 L496.145508,500.564453 Z M503.337402,500.564453 L504.47998,500.564453 L504.47998,506.366211 L507.641113,506.366211 L507.641113,500.564453 L508.783691,500.564453 L508.783691,506.366211 L509.52002,506.366211 L509.52002,509.216309 L508.580566,509.216309 L508.580566,507.305664 L503.337402,507.305664 L503.337402,500.564453 Z M510.770508,500.564453 L516.089844,500.564453 L516.089844,507.305664 L514.947266,507.305664 L514.947266,501.510254 L511.913086,501.510254 L511.913086,507.305664 L510.770508,507.305664 L510.770508,500.564453 Z M517.378418,503.935059 C517.378418,502.68668 517.72542,501.762047 518.419434,501.161133 C518.999189,500.661781 519.705888,500.412109 520.539551,500.412109 C521.466313,500.412109 522.223793,500.715736 522.812012,501.322998 C523.400231,501.93026 523.694336,502.7692 523.694336,503.839844 C523.694336,504.707361 523.56421,505.389727 523.303955,505.886963 C523.0437,506.384198 522.66496,506.770344 522.167725,507.04541 C521.670489,507.320477 521.12777,507.458008 520.539551,507.458008 C519.595861,507.458008 518.833092,507.155439 518.251221,506.550293 C517.669349,505.945147 517.378418,505.073411 517.378418,503.935059 L517.378418,503.935059 Z M518.552734,503.935059 C518.552734,504.798344 518.741046,505.444741 519.117676,505.874268 C519.494305,506.303794 519.968259,506.518555 520.539551,506.518555 C521.106611,506.518555 521.578449,506.302737 521.955078,505.871094 C522.331708,505.439451 522.52002,504.781417 522.52002,503.896973 C522.52002,503.06331 522.33065,502.431724 521.951904,502.002197 C521.573159,501.57267 521.102379,501.35791 520.539551,501.35791 C519.968259,501.35791 519.494305,501.571612 519.117676,501.999023 C518.741046,502.426434 518.552734,503.071773 518.552734,503.935059 L518.552734,503.935059 Z M525.306641,500.564453 L530.613281,500.564453 L530.613281,507.305664 L529.477051,507.305664 L529.477051,501.510254 L526.449219,501.510254 L526.449219,504.868164 C526.449219,505.651046 526.423828,506.167316 526.373047,506.416992 C526.322265,506.666668 526.182618,506.884602 525.954102,507.070801 C525.725585,507.257 525.39551,507.350098 524.963867,507.350098 C524.697264,507.350098 524.390464,507.333171 524.043457,507.299316 L524.043457,506.347168 L524.544922,506.347168 C524.781902,506.347168 524.951171,506.322836 525.052734,506.27417 C525.154297,506.225504 525.222005,506.148275 525.255859,506.04248 C525.289714,505.936686 525.306641,505.5918 525.306641,505.007812 L525.306641,500.564453 Z" id="Танцпол-Copy" fill="#666666" sketch:type="MSShapeGroup"/> 
      </g>  
      <g id="Stage" transform="translate(347.000000, 667.000000)" sketch:type="MSShapeGroup"> 
        <path d="M140.38916,30.7294922 L142.378418,31.2319336 C141.961424,32.8657308 141.211187,34.111568 140.127686,34.9694824 C139.044184,35.8273969 137.719734,36.2563477 136.154297,36.2563477 C134.534172,36.2563477 133.216558,35.926517 132.201416,35.2668457 C131.186274,34.6071744 130.413821,33.6518617 129.884033,32.4008789 C129.354245,31.1498961 129.089355,29.8066478 129.089355,28.3710938 C129.089355,26.8056562 129.388425,25.4401914 129.986572,24.2746582 C130.58472,23.109125 131.435785,22.22388 132.539795,21.6188965 C133.643804,21.013913 134.85888,20.7114258 136.185059,20.7114258 C137.688972,20.7114258 138.953608,21.0942345 139.979004,21.8598633 C141.0044,22.6254921 141.718748,23.7021415 142.12207,25.0898438 L140.163574,25.5512695 C139.81494,24.4575141 139.309085,23.6611353 138.645996,23.1621094 C137.982907,22.6630834 137.148931,22.4135742 136.144043,22.4135742 C134.988764,22.4135742 134.023197,22.6904269 133.247314,23.2441406 C132.471432,23.7978543 131.926271,24.5412551 131.611816,25.4743652 C131.297362,26.4074754 131.140137,27.369624 131.140137,28.3608398 C131.140137,29.6391665 131.326414,30.7551222 131.698975,31.7087402 C132.071535,32.6623583 132.650875,33.3749976 133.437012,33.8466797 C134.223148,34.3183617 135.074214,34.5541992 135.990234,34.5541992 C137.104498,34.5541992 138.047848,34.2329134 138.820312,33.590332 C139.592777,32.9477507 140.115721,31.9941469 140.38916,30.7294922 L140.38916,30.7294922 Z M144.624023,25.1103516 L146.469727,25.1103516 L146.469727,34.4824219 L151.576172,34.4824219 L151.576172,25.1103516 L153.421875,25.1103516 L153.421875,34.4824219 L154.611328,34.4824219 L154.611328,39.0864258 L153.09375,39.0864258 L153.09375,36 L144.624023,36 L144.624023,25.1103516 Z M163.839844,32.4931641 L165.74707,32.7290039 C165.446288,33.8432673 164.889164,34.7080047 164.075684,35.3232422 C163.262203,35.9384796 162.223151,36.2460938 160.958496,36.2460938 C159.365715,36.2460938 158.102788,35.7556201 157.169678,34.7746582 C156.236568,33.7936963 155.77002,32.4179776 155.77002,30.6474609 C155.77002,28.8154205 156.241695,27.3935597 157.185059,26.3818359 C158.128423,25.3701121 159.352043,24.8642578 160.855957,24.8642578 C162.312019,24.8642578 163.50146,25.3598583 164.424316,26.3510742 C165.347173,27.3422901 165.808594,28.7368074 165.808594,30.534668 C165.808594,30.6440435 165.805176,30.8081044 165.79834,31.0268555 L157.677246,31.0268555 C157.745606,32.2231505 158.083981,33.139157 158.692383,33.7749023 C159.300784,34.4106477 160.059566,34.7285156 160.96875,34.7285156 C161.645511,34.7285156 162.223142,34.550783 162.70166,34.1953125 C163.180178,33.839842 163.559569,33.2724648 163.839844,32.4931641 L163.839844,32.4931641 Z M157.779785,29.5092773 L163.860352,29.5092773 C163.77832,28.5932571 163.5459,27.9062523 163.163086,27.4482422 C162.575192,26.7373011 161.812993,26.3818359 160.876465,26.3818359 C160.028804,26.3818359 159.316165,26.6655245 158.738525,27.2329102 C158.160886,27.8002958 157.841309,28.5590773 157.779785,29.5092773 L157.779785,29.5092773 Z M168.074707,25.1103516 L169.92041,25.1103516 L169.92041,29.6425781 L175.037109,29.6425781 L175.037109,25.1103516 L176.882812,25.1103516 L176.882812,36 L175.037109,36 L175.037109,31.1704102 L169.92041,31.1704102 L169.92041,36 L168.074707,36 L168.074707,25.1103516 Z M186.767578,34.6567383 C186.083981,35.2377959 185.426029,35.647948 184.793701,35.887207 C184.161374,36.126466 183.482914,36.2460938 182.758301,36.2460938 C181.562006,36.2460938 180.642581,35.9538603 180,35.3693848 C179.357419,34.7849092 179.036133,34.0380905 179.036133,33.1289062 C179.036133,32.5957005 179.157469,32.1086448 179.400146,31.6677246 C179.642823,31.2268044 179.960691,30.8730482 180.35376,30.6064453 C180.746828,30.3398424 181.189451,30.1381843 181.681641,30.0014648 C182.043947,29.9057612 182.590817,29.813477 183.322266,29.7246094 C184.812507,29.5468741 185.909664,29.3349622 186.61377,29.0888672 C186.620606,28.8359362 186.624023,28.6752933 186.624023,28.6069336 C186.624023,27.8549767 186.449709,27.3251969 186.101074,27.0175781 C185.629392,26.6005839 184.928716,26.3920898 183.999023,26.3920898 C183.130855,26.3920898 182.489992,26.5441879 182.076416,26.8483887 C181.66284,27.1525894 181.356935,27.6909141 181.158691,28.4633789 L179.354004,28.2172852 C179.518067,27.4448204 179.788084,26.8210473 180.164062,26.3459473 C180.540041,25.8708472 181.083493,25.5051282 181.794434,25.2487793 C182.505375,24.9924304 183.329097,24.8642578 184.265625,24.8642578 C185.195317,24.8642578 185.950681,24.9736317 186.531738,25.1923828 C187.112796,25.4111339 187.540038,25.6862776 187.813477,26.0178223 C188.086915,26.3493669 188.27832,26.7680639 188.387695,27.2739258 C188.449219,27.5883805 188.47998,28.1557576 188.47998,28.9760742 L188.47998,31.4370117 C188.47998,33.1528406 188.519287,34.2380348 188.5979,34.692627 C188.676514,35.1472191 188.83203,35.5830057 189.064453,36 L187.136719,36 C186.945312,35.6171856 186.822266,35.1694362 186.767578,34.6567383 L186.767578,34.6567383 Z M186.61377,30.534668 C185.943844,30.8081068 184.938972,31.0405264 183.599121,31.2319336 C182.840328,31.3413091 182.303713,31.4643548 181.989258,31.6010742 C181.674803,31.7377937 181.43213,31.9377428 181.26123,32.2009277 C181.090331,32.4641126 181.004883,32.756346 181.004883,33.0776367 C181.004883,33.5698267 181.19116,33.9799788 181.563721,34.3081055 C181.936281,34.6362321 182.481442,34.800293 183.199219,34.800293 C183.91016,34.800293 184.542478,34.6447769 185.096191,34.3337402 C185.649905,34.0227035 186.056639,33.5971707 186.316406,33.0571289 C186.514649,32.6401346 186.61377,32.0249064 186.61377,31.2114258 L186.61377,30.534668 Z" id="Сцена" fill="#666666"/>  
        <path d="M163.906747,-150.803418 C163.906747,-150.803418 152.093253,-79.5008261 152.093253,6.3931587 C152.093253,92.2871435 163.906747,163.589745 163.906747,163.589745" id="outline" stroke="#E2E2E2" stroke-width="5" transform="translate(158.000000, 6.393164) rotate(-270.000000) translate(-158.000000, -6.393164) "/> 
      </g> 
    </g> 
  </g> 
</svg>
