<?xml version="1.0" encoding="utf-8"?>
<svg xmlns="http://www.w3.org/2000/svg" xmlns:xlink="http://www.w3.org/1999/xlink" width="2714px" height="2104px" viewBox="0 0 2714 2104" version="1.1">  
  <!-- Generator: Sketch 3.6.1 (26313) - http://www.bohemiancoding.com/sketch -->  
  <title>Государственный Кремлевский Дворец v.7-3</title>  
  <desc>Created with Sketch.</desc>  
  <defs/>  
  <g id="Page-1" stroke="none" stroke-width="1" fill="none" fill-rule="evenodd"> 
    <g id="Rectangle-3-Copy-+-Path-+-Rectangle-1" transform="translate(3.000000, 2.000000)" fill="#aaFFFF"> 
      <path  fill="#aaFFaa" d="M1.11022302e-16,11.9958691 C1.11022302e-16,5.37073352 5.37393193,0 12.003514,0 L2696.99649,0 C2703.62584,0 2709,5.37545466 2709,11.9958691 L2709,586.004131 C2709,592.629266 2703.6369,598 2697.0015,598 L2083.9985,598 C2077.37191,598 2066.63207,598 2059.99769,598 L1960.00231,598 C1953.37362,598 1948,592.625802 1948,586.003481 L1948,501.996519 C1948,495.371025 1948,484.625882 1948,477.993338 L1948,470.006662 C1948,463.375566 1942.62588,458 1935.99334,458 L1928.00666,458 C1921.37557,458 1910.61844,458 1904.00085,458 L805.499148,458 C798.872202,458 788.120748,458 781.501341,458 L773.998659,458 C767.371983,458 762,463.374118 762,470.006662 L762,477.993338 C762,484.624434 762,495.374198 762,501.996519 L762,586.003481 C762,592.628975 756.626245,598 750.004163,598 L647.995837,598 C641.370719,598 630.621517,598 624.002898,598 L11.9971015,598 C5.3712853,598 1.11022302e-16,592.624545 1.11022302e-16,586.004131 L1.11022302e-16,11.9958691 Z" id="Rectangle-3-Copy"/>  
      <path d="M0,641.992481 C0,635.369217 5.37393193,630 12.003514,630 L2696.99649,630 C2703.62584,630 2709,635.365317 2709,641.992481 L2709,1692.00752 C2709,1698.63078 2703.62623,1704 2696.99915,1704 L2363.00085,1704 C2356.37296,1704 2351,1698.61985 2351,1692.00325 L2351,1028.99675 C2351,1022.37113 2345.62287,1017 2338.99435,1017 L367.005646,1017 C360.375111,1017 355,1022.38015 355,1028.99675 L355,1692.00325 C355,1698.62887 349.636234,1704 342.997857,1704 L12.0021429,1704 C5.37354241,1704 0,1698.63468 0,1692.00752 L0,641.992481 Z" id="Path"/>  
      <path d="M386,1055.99906 C386,1051.5813 389.588166,1048 393.991904,1048 L2311.0081,1048 C2315.4219,1048 2319,1051.57391 2319,1055.99906 L2319,2027.00094 C2319,2031.4187 2315.41183,2035 2311.0081,2035 L393.991904,2035 C389.578097,2035 386,2031.42609 386,2027.00094 L386,1055.99906 Z" id="Rectangle-1"/> 
    </g>  
    <g id="подписи" transform="translate(35.000000, 26.000000)" font-family="ArialMT, Arial" font-weight="normal"> 
      <text id="20-copy-5" font-size="8" line-spacing="20" fill="#000000"> 
        <tspan x="1100.05078" y="1595">20</tspan>  
        <tspan x="1100.05078" y="1615.26172">19</tspan>  
        <tspan x="1100.05078" y="1635.52344">18</tspan>  
        <tspan x="1100.05078" y="1655.78516">17</tspan>  
        <tspan x="1100.05078" y="1676.04688">16</tspan>  
        <tspan x="1100.05078" y="1696.30859">15</tspan>  
        <tspan x="1100.05078" y="1716.57031">14</tspan>  
        <tspan x="1100.05078" y="1736.83203">13</tspan>  
        <tspan x="1100.05078" y="1757.09375">12</tspan>  
        <tspan x="1100.34766" y="1777.35547">11</tspan>  
        <tspan x="1100.05078" y="1797.61719">10</tspan>  
        <tspan x="1102.27539" y="1817.87891">9</tspan>  
        <tspan x="1102.27539" y="1838.14062">8</tspan>  
        <tspan x="1102.27539" y="1858.40234">7</tspan>  
        <tspan x="1102.27539" y="1878.66406">6</tspan>  
        <tspan x="1102.27539" y="1898.92578">5</tspan>  
        <tspan x="1102.27539" y="1919.1875">4</tspan>  
        <tspan x="1102.27539" y="1939.44922">3</tspan>  
        <tspan x="1102.27539" y="1959.71094">2</tspan>  
        <tspan x="1102.27539" y="1979.97266">1</tspan> 
      </text>  
      <text id="20-copy-3" font-size="8" line-spacing="20" fill="#000000"> 
        <tspan x="611.050781" y="1595">20</tspan>  
        <tspan x="611.050781" y="1615.26172">19</tspan>  
        <tspan x="611.050781" y="1635.52344">18</tspan>  
        <tspan x="611.050781" y="1655.78516">17</tspan>  
        <tspan x="611.050781" y="1676.04688">16</tspan>  
        <tspan x="611.050781" y="1696.30859">15</tspan>  
        <tspan x="611.050781" y="1716.57031">14</tspan>  
        <tspan x="611.050781" y="1736.83203">13</tspan>  
        <tspan x="611.050781" y="1757.09375">12</tspan>  
        <tspan x="611.347656" y="1777.35547">11</tspan>  
        <tspan x="611.050781" y="1797.61719">10</tspan>  
        <tspan x="613.275391" y="1817.87891">9</tspan>  
        <tspan x="613.275391" y="1838.14062">8</tspan>  
        <tspan x="613.275391" y="1858.40234">7</tspan>  
        <tspan x="613.275391" y="1878.66406">6</tspan>  
        <tspan x="613.275391" y="1898.92578">5</tspan>  
        <tspan x="613.275391" y="1919.1875">4</tspan>  
        <tspan x="613.275391" y="1939.44922">3</tspan>  
        <tspan x="613.275391" y="1959.71094">2</tspan>  
        <tspan x="613.275391" y="1979.97266">1</tspan> 
      </text>  
      <text id="Партер" font-size="15" fill="#666666"> 
        <tspan x="1299" y="1553">Партер</tspan> 
      </text>  
      <text id="20-copy-7" font-size="8" line-spacing="20" fill="#000000"> 
        <tspan x="1317.05078" y="1595">20</tspan>  
        <tspan x="1317.05078" y="1615.26172">19</tspan>  
        <tspan x="1317.05078" y="1635.52344">18</tspan>  
        <tspan x="1317.05078" y="1655.78516">17</tspan>  
        <tspan x="1317.05078" y="1676.04688">16</tspan>  
        <tspan x="1317.05078" y="1696.30859">15</tspan>  
        <tspan x="1317.05078" y="1716.57031">14</tspan>  
        <tspan x="1317.05078" y="1736.83203">13</tspan>  
        <tspan x="1317.05078" y="1757.09375">12</tspan>  
        <tspan x="1317.34766" y="1777.35547">11</tspan>  
        <tspan x="1317.05078" y="1797.61719">10</tspan>  
        <tspan x="1319.27539" y="1817.87891">9</tspan>  
        <tspan x="1319.27539" y="1838.14062">8</tspan>  
        <tspan x="1319.27539" y="1858.40234">7</tspan>  
        <tspan x="1319.27539" y="1878.66406">6</tspan>  
        <tspan x="1319.27539" y="1898.92578">5</tspan>  
        <tspan x="1319.27539" y="1919.1875">4</tspan>  
        <tspan x="1319.27539" y="1939.44922">3</tspan>  
        <tspan x="1319.27539" y="1959.71094">2</tspan>  
        <tspan x="1319.27539" y="1979.97266">1</tspan> 
      </text>  
      <text id="20-copy-12" font-size="8" line-spacing="20" fill="#000000"> 
        <tspan x="1533.05078" y="1595">20</tspan>  
        <tspan x="1533.05078" y="1615.26172">19</tspan>  
        <tspan x="1533.05078" y="1635.52344">18</tspan>  
        <tspan x="1533.05078" y="1655.78516">17</tspan>  
        <tspan x="1533.05078" y="1676.04688">16</tspan>  
        <tspan x="1533.05078" y="1696.30859">15</tspan>  
        <tspan x="1533.05078" y="1716.57031">14</tspan>  
        <tspan x="1533.05078" y="1736.83203">13</tspan>  
        <tspan x="1533.05078" y="1757.09375">12</tspan>  
        <tspan x="1533.34766" y="1777.35547">11</tspan>  
        <tspan x="1533.05078" y="1797.61719">10</tspan>  
        <tspan x="1535.27539" y="1817.87891">9</tspan>  
        <tspan x="1535.27539" y="1838.14062">8</tspan>  
        <tspan x="1535.27539" y="1858.40234">7</tspan>  
        <tspan x="1535.27539" y="1878.66406">6</tspan>  
        <tspan x="1535.27539" y="1898.92578">5</tspan>  
        <tspan x="1535.27539" y="1919.1875">4</tspan>  
        <tspan x="1535.27539" y="1939.44922">3</tspan>  
        <tspan x="1535.27539" y="1959.71094">2</tspan>  
        <tspan x="1535.27539" y="1979.97266">1</tspan> 
      </text>  
      <text id="20-copy-8" font-size="8" line-spacing="20" fill="#000000"> 
        <tspan x="2242.05078" y="1595">20</tspan>  
        <tspan x="2242.05078" y="1615.26172">19</tspan>  
        <tspan x="2242.05078" y="1635.52344">18</tspan>  
        <tspan x="2242.05078" y="1655.78516">17</tspan>  
        <tspan x="2242.05078" y="1676.04688">16</tspan>  
        <tspan x="2242.05078" y="1696.30859">15</tspan>  
        <tspan x="2242.05078" y="1716.57031">14</tspan>  
        <tspan x="2242.05078" y="1736.83203">13</tspan>  
        <tspan x="2242.05078" y="1757.09375">12</tspan>  
        <tspan x="2242.34766" y="1777.35547">11</tspan>  
        <tspan x="2242.05078" y="1797.61719">10</tspan>  
        <tspan x="2244.27539" y="1817.87891">9</tspan>  
        <tspan x="2244.27539" y="1838.14062">8</tspan>  
        <tspan x="2244.27539" y="1858.40234">7</tspan>  
        <tspan x="2244.27539" y="1878.66406">6</tspan>  
        <tspan x="2244.27539" y="1898.92578">5</tspan>  
        <tspan x="2244.27539" y="1919.1875">4</tspan>  
        <tspan x="2244.27539" y="1939.44922">3</tspan>  
        <tspan x="2244.27539" y="1959.71094">2</tspan>  
        <tspan x="2244.27539" y="1979.97266">1</tspan> 
      </text>  
      <text id="20-copy-9" font-size="8" line-spacing="20" fill="#000000"> 
        <tspan x="2026.05078" y="1595">20</tspan>  
        <tspan x="2026.05078" y="1615.26172">19</tspan>  
        <tspan x="2026.05078" y="1635.52344">18</tspan>  
        <tspan x="2026.05078" y="1655.78516">17</tspan>  
        <tspan x="2026.05078" y="1676.04688">16</tspan>  
        <tspan x="2026.05078" y="1696.30859">15</tspan>  
        <tspan x="2026.05078" y="1716.57031">14</tspan>  
        <tspan x="2026.05078" y="1736.83203">13</tspan>  
        <tspan x="2026.05078" y="1757.09375">12</tspan>  
        <tspan x="2026.34766" y="1777.35547">11</tspan>  
        <tspan x="2026.05078" y="1797.61719">10</tspan>  
        <tspan x="2028.27539" y="1817.87891">9</tspan>  
        <tspan x="2028.27539" y="1838.14062">8</tspan>  
        <tspan x="2028.27539" y="1858.40234">7</tspan>  
        <tspan x="2028.27539" y="1878.66406">6</tspan>  
        <tspan x="2028.27539" y="1898.92578">5</tspan>  
        <tspan x="2028.27539" y="1919.1875">4</tspan>  
        <tspan x="2028.27539" y="1939.44922">3</tspan>  
        <tspan x="2028.27539" y="1959.71094">2</tspan>  
        <tspan x="2028.27539" y="1979.97266">1</tspan> 
      </text>  
      <text id="Балкон-Copy" font-size="15" fill="#666666"> 
        <tspan x="1299.5" y="214">Балкон</tspan> 
      </text>  
      <text id="Ложа-балкона-правая-" font-size="13" fill="#666666"> 
        <tspan x="254.625488" y="464">Ложа балкона правая сторона</tspan> 
      </text>  
      <text id="Ложа-балкона-левая-с" font-size="13" fill="#666666"> 
        <tspan x="2208.96753" y="464">Ложа балкона левая сторона</tspan> 
      </text>  
      <text id="Амфитеатр" font-size="15" fill="#666666"> 
        <tspan x="1286" y="834">Амфитеатр</tspan> 
      </text>  
      <text id="44-copy-3" font-size="8" line-spacing="20" fill="#000000"> 
        <tspan x="1161.5" y="707"/>  
        <tspan x="1157.05078" y="727">41</tspan>  
        <tspan x="1157.05078" y="747.261719">40</tspan>  
        <tspan x="1157.05078" y="767.523438">39</tspan>  
        <tspan x="1157.05078" y="787.785156">38</tspan> 
      </text>  
      <text id="44-copy-4" font-size="8" line-spacing="20" fill="#000000"> 
        <tspan x="1478.5" y="707"/>  
        <tspan x="1474.05078" y="727">41</tspan>  
        <tspan x="1474.05078" y="747.261719">40</tspan>  
        <tspan x="1474.05078" y="767.523438">39</tspan>  
        <tspan x="1474.05078" y="787.785156">38</tspan> 
      </text>  
      <text id="37-copy-7" font-size="8" line-spacing="20" fill="#000000"> 
        <tspan x="888.050781" y="878">37</tspan>  
        <tspan x="888.050781" y="898.261719">36</tspan>  
        <tspan x="888.050781" y="918.523438">35</tspan>  
        <tspan x="888.050781" y="938.785156">34</tspan>  
        <tspan x="888.050781" y="959.046875">33</tspan> 
      </text>  
      <text id="37-copy-3" font-size="8" line-spacing="20" fill="#000000"> 
        <tspan x="451.050781" y="878">37</tspan>  
        <tspan x="451.050781" y="898.261719">36</tspan>  
        <tspan x="451.050781" y="918.523438">35</tspan>  
        <tspan x="451.050781" y="938.785156">34</tspan>  
        <tspan x="451.050781" y="959.046875">33</tspan> 
      </text>  
      <text id="37" font-size="8" line-spacing="20" fill="#000000"> 
        <tspan x="1097.05078" y="878">37</tspan>  
        <tspan x="1097.05078" y="898.261719">36</tspan>  
        <tspan x="1097.05078" y="918.523438">35</tspan>  
        <tspan x="1097.05078" y="938.785156">34</tspan>  
        <tspan x="1097.05078" y="959.046875">33</tspan> 
      </text>  
      <text id="37-copy-6" font-size="8" line-spacing="20" fill="#000000"> 
        <tspan x="1534.05078" y="878">37</tspan>  
        <tspan x="1534.05078" y="898.261719">36</tspan>  
        <tspan x="1534.05078" y="918.523438">35</tspan>  
        <tspan x="1534.05078" y="938.785156">34</tspan>  
        <tspan x="1534.05078" y="959.046875">33</tspan> 
      </text>  
      <text id="37-copy-2" font-size="8" line-spacing="20" fill="#000000"> 
        <tspan x="1743.05078" y="878">37</tspan>  
        <tspan x="1743.05078" y="898.261719">36</tspan>  
        <tspan x="1743.05078" y="918.523438">35</tspan>  
        <tspan x="1743.05078" y="938.785156">34</tspan>  
        <tspan x="1743.05078" y="959.046875">33</tspan> 
      </text>  
      <text id="37-copy-5" font-size="8" line-spacing="20" fill="#000000"> 
        <tspan x="2180.05078" y="878">37</tspan>  
        <tspan x="2180.05078" y="898.261719">36</tspan>  
        <tspan x="2180.05078" y="918.523438">35</tspan>  
        <tspan x="2180.05078" y="938.785156">34</tspan>  
        <tspan x="2180.05078" y="959.046875">33</tspan> 
      </text>  
      <text id="44-copy-7" font-size="8" line-spacing="20" fill="#000000"> 
        <tspan x="2356.5" y="666"/>  
        <tspan x="2352.05078" y="686">43</tspan>  
        <tspan x="2352.05078" y="706.261719">42</tspan>  
        <tspan x="2352.05078" y="726.523438">41</tspan>  
        <tspan x="2352.05078" y="746.785156">40</tspan>  
        <tspan x="2352.05078" y="767.046875">39</tspan>  
        <tspan x="2352.05078" y="787.308594">38</tspan> 
      </text>  
      <text id="44-copy-8" font-size="8" line-spacing="20" fill="#000000"> 
        <tspan x="2115.5" y="667"/>  
        <tspan x="2111.05078" y="687">43</tspan>  
        <tspan x="2111.05078" y="707.261719">42</tspan>  
        <tspan x="2111.05078" y="727.523438">41</tspan>  
        <tspan x="2111.05078" y="747.785156">40</tspan>  
        <tspan x="2111.05078" y="768.046875">39</tspan>  
        <tspan x="2111.05078" y="788.308594">38</tspan> 
      </text>  
      <text id="44-copy-9" font-size="8" line-spacing="20" fill="#000000"> 
        <tspan x="1777.5" y="667"/>  
        <tspan x="1773.05078" y="687">43</tspan>  
        <tspan x="1773.05078" y="707.261719">42</tspan>  
        <tspan x="1773.05078" y="727.523438">41</tspan>  
        <tspan x="1773.05078" y="747.785156">40</tspan>  
        <tspan x="1773.05078" y="768.046875">39</tspan>  
        <tspan x="1773.05078" y="788.308594">38</tspan> 
      </text>  
      <text id="37" font-size="8" line-spacing="20" fill="#000000"> 
        <tspan x="280.550781" y="873.574219">37</tspan>  
        <tspan x="280.550781" y="893.835938">36</tspan>  
        <tspan x="280.550781" y="914.097656">35</tspan>  
        <tspan x="280.550781" y="934.359375">34</tspan>  
        <tspan x="280.550781" y="954.621094">33</tspan>  
        <tspan x="280.550781" y="974.882812">32</tspan>  
        <tspan x="280.550781" y="995.144531">31</tspan>  
        <tspan x="280.550781" y="1015.40625">30</tspan>  
        <tspan x="280.550781" y="1035.66797">29</tspan>  
        <tspan x="280.550781" y="1055.92969">28</tspan>  
        <tspan x="280.550781" y="1076.19141">27</tspan>  
        <tspan x="280.550781" y="1096.45312">26</tspan>  
        <tspan x="280.550781" y="1116.71484">25</tspan>  
        <tspan x="280.550781" y="1136.97656">24</tspan>  
        <tspan x="280.550781" y="1157.23828">23</tspan>  
        <tspan x="280.550781" y="1177.5">22</tspan>  
        <tspan x="280.550781" y="1197.76172">21</tspan>  
        <tspan x="280.550781" y="1218.02344">20</tspan>  
        <tspan x="280.550781" y="1238.28516">19</tspan>  
        <tspan x="280.550781" y="1258.54688">18</tspan>  
        <tspan x="280.550781" y="1278.80859">17</tspan>  
        <tspan x="280.550781" y="1299.07031">16</tspan>  
        <tspan x="280.550781" y="1319.33203">15</tspan>  
        <tspan x="280.550781" y="1339.59375">14</tspan>  
        <tspan x="280.550781" y="1359.85547">13</tspan>  
        <tspan x="280.550781" y="1380.11719">12</tspan>  
        <tspan x="280.847656" y="1400.37891">11</tspan>  
        <tspan x="280.550781" y="1420.64062">10</tspan>  
        <tspan x="282.775391" y="1440.90234">9</tspan>  
        <tspan x="282.775391" y="1461.16406">8</tspan>  
        <tspan x="282.775391" y="1481.42578">7</tspan>  
        <tspan x="282.775391" y="1501.6875">6</tspan>  
        <tspan x="282.775391" y="1521.94922">5</tspan>  
        <tspan x="282.775391" y="1542.21094">4</tspan>  
        <tspan x="282.775391" y="1562.47266">3</tspan>  
        <tspan x="282.775391" y="1582.73438">2</tspan>  
        <tspan x="282.775391" y="1602.99609">1</tspan> 
      </text>  
      <text id="43" font-size="8" line-spacing="21" fill="#000000"> 
        <tspan x="865.050781" y="685">43</tspan>  
        <tspan x="865.050781" y="706.261719">42</tspan>  
        <tspan x="865.050781" y="727.523438">41</tspan>  
        <tspan x="865.050781" y="748.785156">40</tspan>  
        <tspan x="865.050781" y="770.046875">39</tspan>  
        <tspan x="865.050781" y="791.308594">38</tspan> 
      </text>  
      <text id="43-copy-5" font-size="8" line-spacing="21" fill="#000000"> 
        <tspan x="521.050781" y="685">43</tspan>  
        <tspan x="521.050781" y="706.261719">42</tspan>  
        <tspan x="521.050781" y="727.523438">41</tspan>  
        <tspan x="521.050781" y="748.785156">40</tspan>  
        <tspan x="521.050781" y="770.046875">39</tspan>  
        <tspan x="521.050781" y="791.308594">38</tspan> 
      </text>  
      <text id="43-copy-14" font-size="8" line-spacing="21" fill="#000000"> 
        <tspan x="284.050781" y="685">43</tspan>  
        <tspan x="284.050781" y="706.261719">42</tspan>  
        <tspan x="284.050781" y="727.523438">41</tspan>  
        <tspan x="284.050781" y="748.785156">40</tspan>  
        <tspan x="284.050781" y="770.046875">39</tspan>  
        <tspan x="284.050781" y="791.308594">38</tspan> 
      </text>  
      <text id="44" font-size="8" fill="#000000"> 
        <tspan x="122" y="647">44</tspan> 
      </text>  
      <text id="44-copy-2" font-size="8" fill="#000000"> 
        <tspan x="942" y="647">44</tspan> 
      </text>  
      <text id="44-copy-5" font-size="8" fill="#000000"> 
        <tspan x="1693" y="648">44</tspan> 
      </text>  
      <text id="44-copy-6" font-size="8" fill="#000000"> 
        <tspan x="2491" y="648">44</tspan> 
      </text>  
      <text id="43-copy-10" font-size="8" line-spacing="20" fill="#000000"> 
        <tspan x="1804.55078" y="1065">43</tspan>  
        <tspan x="1804.55078" y="1085.26172">42</tspan>  
        <tspan x="1804.55078" y="1105.52344">41</tspan>  
        <tspan x="1804.55078" y="1125.78516">40</tspan>  
        <tspan x="1804.55078" y="1146.04688">39</tspan>  
        <tspan x="1804.55078" y="1166.30859">38</tspan>  
        <tspan x="1804.55078" y="1186.57031">37</tspan>  
        <tspan x="1804.55078" y="1206.83203">36</tspan>  
        <tspan x="1804.55078" y="1227.09375">35</tspan>  
        <tspan x="1804.55078" y="1247.35547">34</tspan>  
        <tspan x="1804.55078" y="1267.61719">33</tspan>  
        <tspan x="1804.55078" y="1287.87891">32</tspan>  
        <tspan x="1804.55078" y="1308.14062">31</tspan>  
        <tspan x="1804.55078" y="1328.40234">30</tspan>  
        <tspan x="1804.55078" y="1348.66406">29</tspan>  
        <tspan x="1804.55078" y="1368.92578">28</tspan>  
        <tspan x="1804.55078" y="1389.1875">27</tspan>  
        <tspan x="1804.55078" y="1409.44922">26</tspan>  
        <tspan x="1804.55078" y="1429.71094">25</tspan>  
        <tspan x="1804.55078" y="1449.97266">24</tspan>  
        <tspan x="1804.55078" y="1470.23438">23</tspan>  
        <tspan x="1804.55078" y="1490.49609">22</tspan>  
        <tspan x="1804.55078" y="1510.75781">21</tspan> 
      </text>  
      <text id="43-copy-11" font-size="8" line-spacing="20" fill="#000000"> 
        <tspan x="2042.55078" y="1065">43</tspan>  
        <tspan x="2042.55078" y="1085.26172">42</tspan>  
        <tspan x="2042.55078" y="1105.52344">41</tspan>  
        <tspan x="2042.55078" y="1125.78516">40</tspan>  
        <tspan x="2042.55078" y="1146.04688">39</tspan>  
        <tspan x="2042.55078" y="1166.30859">38</tspan>  
        <tspan x="2042.55078" y="1186.57031">37</tspan>  
        <tspan x="2042.55078" y="1206.83203">36</tspan>  
        <tspan x="2042.55078" y="1227.09375">35</tspan>  
        <tspan x="2042.55078" y="1247.35547">34</tspan>  
        <tspan x="2042.55078" y="1267.61719">33</tspan>  
        <tspan x="2042.55078" y="1287.87891">32</tspan>  
        <tspan x="2042.55078" y="1308.14062">31</tspan>  
        <tspan x="2042.55078" y="1328.40234">30</tspan>  
        <tspan x="2042.55078" y="1348.66406">29</tspan>  
        <tspan x="2042.55078" y="1368.92578">28</tspan>  
        <tspan x="2042.55078" y="1389.1875">27</tspan>  
        <tspan x="2042.55078" y="1409.44922">26</tspan>  
        <tspan x="2042.55078" y="1429.71094">25</tspan>  
        <tspan x="2042.55078" y="1449.97266">24</tspan>  
        <tspan x="2042.55078" y="1470.23438">23</tspan>  
        <tspan x="2042.55078" y="1490.49609">22</tspan>  
        <tspan x="2042.55078" y="1510.75781">21</tspan> 
      </text>  
      <text id="43-copy-9" font-size="8" line-spacing="20" fill="#000000"> 
        <tspan x="1561.55078" y="1065">43</tspan>  
        <tspan x="1561.55078" y="1085.26172">42</tspan>  
        <tspan x="1561.55078" y="1105.52344">41</tspan>  
        <tspan x="1561.55078" y="1125.78516">40</tspan>  
        <tspan x="1561.55078" y="1146.04688">39</tspan>  
        <tspan x="1561.55078" y="1166.30859">38</tspan>  
        <tspan x="1561.55078" y="1186.57031">37</tspan>  
        <tspan x="1561.55078" y="1206.83203">36</tspan>  
        <tspan x="1561.55078" y="1227.09375">35</tspan>  
        <tspan x="1561.55078" y="1247.35547">34</tspan>  
        <tspan x="1561.55078" y="1267.61719">33</tspan>  
        <tspan x="1561.55078" y="1287.87891">32</tspan>  
        <tspan x="1561.55078" y="1308.14062">31</tspan>  
        <tspan x="1561.55078" y="1328.40234">30</tspan>  
        <tspan x="1561.55078" y="1348.66406">29</tspan>  
        <tspan x="1561.55078" y="1368.92578">28</tspan>  
        <tspan x="1561.55078" y="1389.1875">27</tspan>  
        <tspan x="1561.55078" y="1409.44922">26</tspan>  
        <tspan x="1561.55078" y="1429.71094">25</tspan>  
        <tspan x="1561.55078" y="1449.97266">24</tspan>  
        <tspan x="1561.55078" y="1470.23438">23</tspan>  
        <tspan x="1561.55078" y="1490.49609">22</tspan>  
        <tspan x="1561.55078" y="1510.75781">21</tspan> 
      </text>  
      <text id="43-copy-4" font-size="8" line-spacing="20" fill="#000000"> 
        <tspan x="833.050781" y="1065">43</tspan>  
        <tspan x="833.050781" y="1085.26172">42</tspan>  
        <tspan x="833.050781" y="1105.52344">41</tspan>  
        <tspan x="833.050781" y="1125.78516">40</tspan>  
        <tspan x="833.050781" y="1146.04688">39</tspan>  
        <tspan x="833.050781" y="1166.30859">38</tspan>  
        <tspan x="833.050781" y="1186.57031">37</tspan>  
        <tspan x="833.050781" y="1206.83203">36</tspan>  
        <tspan x="833.050781" y="1227.09375">35</tspan>  
        <tspan x="833.050781" y="1247.35547">34</tspan>  
        <tspan x="833.050781" y="1267.61719">33</tspan>  
        <tspan x="833.050781" y="1287.87891">32</tspan>  
        <tspan x="833.050781" y="1308.14062">31</tspan>  
        <tspan x="833.050781" y="1328.40234">30</tspan>  
        <tspan x="833.050781" y="1348.66406">29</tspan>  
        <tspan x="833.050781" y="1368.92578">28</tspan>  
        <tspan x="833.050781" y="1389.1875">27</tspan>  
        <tspan x="833.050781" y="1409.44922">26</tspan>  
        <tspan x="833.050781" y="1429.71094">25</tspan>  
        <tspan x="833.050781" y="1449.97266">24</tspan>  
        <tspan x="833.050781" y="1470.23438">23</tspan>  
        <tspan x="833.050781" y="1490.49609">22</tspan>  
        <tspan x="833.050781" y="1510.75781">21</tspan> 
      </text>  
      <text id="43" font-size="8" line-spacing="20" fill="#000000"> 
        <tspan x="1314.05078" y="1065">43</tspan>  
        <tspan x="1314.05078" y="1085.26172">42</tspan>  
        <tspan x="1314.05078" y="1105.52344">41</tspan>  
        <tspan x="1314.05078" y="1125.78516">40</tspan>  
        <tspan x="1314.05078" y="1146.04688">39</tspan>  
        <tspan x="1314.05078" y="1166.30859">38</tspan>  
        <tspan x="1314.05078" y="1186.57031">37</tspan>  
        <tspan x="1314.05078" y="1206.83203">36</tspan>  
        <tspan x="1314.05078" y="1227.09375">35</tspan>  
        <tspan x="1314.05078" y="1247.35547">34</tspan>  
        <tspan x="1314.05078" y="1267.61719">33</tspan>  
        <tspan x="1314.05078" y="1287.87891">32</tspan>  
        <tspan x="1314.05078" y="1308.14062">31</tspan>  
        <tspan x="1314.05078" y="1328.40234">30</tspan>  
        <tspan x="1314.05078" y="1348.66406">29</tspan>  
        <tspan x="1314.05078" y="1368.92578">28</tspan>  
        <tspan x="1314.05078" y="1389.1875">27</tspan>  
        <tspan x="1314.05078" y="1409.44922">26</tspan>  
        <tspan x="1314.05078" y="1429.71094">25</tspan>  
        <tspan x="1314.05078" y="1449.97266">24</tspan>  
        <tspan x="1314.05078" y="1470.23438">23</tspan>  
        <tspan x="1314.05078" y="1490.49609">22</tspan>  
        <tspan x="1314.05078" y="1510.75781">21</tspan> 
      </text>  
      <text id="43-copy-6" font-size="8" line-spacing="20" fill="#000000"> 
        <tspan x="1075.55078" y="1065">43</tspan>  
        <tspan x="1075.55078" y="1085.26172">42</tspan>  
        <tspan x="1075.55078" y="1105.52344">41</tspan>  
        <tspan x="1075.55078" y="1125.78516">40</tspan>  
        <tspan x="1075.55078" y="1146.04688">39</tspan>  
        <tspan x="1075.55078" y="1166.30859">38</tspan>  
        <tspan x="1075.55078" y="1186.57031">37</tspan>  
        <tspan x="1075.55078" y="1206.83203">36</tspan>  
        <tspan x="1075.55078" y="1227.09375">35</tspan>  
        <tspan x="1075.55078" y="1247.35547">34</tspan>  
        <tspan x="1075.55078" y="1267.61719">33</tspan>  
        <tspan x="1075.55078" y="1287.87891">32</tspan>  
        <tspan x="1075.55078" y="1308.14062">31</tspan>  
        <tspan x="1075.55078" y="1328.40234">30</tspan>  
        <tspan x="1075.55078" y="1348.66406">29</tspan>  
        <tspan x="1075.55078" y="1368.92578">28</tspan>  
        <tspan x="1075.55078" y="1389.1875">27</tspan>  
        <tspan x="1075.55078" y="1409.44922">26</tspan>  
        <tspan x="1075.55078" y="1429.71094">25</tspan>  
        <tspan x="1075.55078" y="1449.97266">24</tspan>  
        <tspan x="1075.55078" y="1470.23438">23</tspan>  
        <tspan x="1075.55078" y="1490.49609">22</tspan>  
        <tspan x="1075.55078" y="1510.75781">21</tspan> 
      </text>  
      <text id="43-copy-3" font-size="8" line-spacing="20" fill="#000000"> 
        <tspan x="592.050781" y="1065">43</tspan>  
        <tspan x="592.050781" y="1085.26172">42</tspan>  
        <tspan x="592.050781" y="1105.52344">41</tspan>  
        <tspan x="592.050781" y="1125.78516">40</tspan>  
        <tspan x="592.050781" y="1146.04688">39</tspan>  
        <tspan x="592.050781" y="1166.30859">38</tspan>  
        <tspan x="592.050781" y="1186.57031">37</tspan>  
        <tspan x="592.050781" y="1206.83203">36</tspan>  
        <tspan x="592.050781" y="1227.09375">35</tspan>  
        <tspan x="592.050781" y="1247.35547">34</tspan>  
        <tspan x="592.050781" y="1267.61719">33</tspan>  
        <tspan x="592.050781" y="1287.87891">32</tspan>  
        <tspan x="592.050781" y="1308.14062">31</tspan>  
        <tspan x="592.050781" y="1328.40234">30</tspan>  
        <tspan x="592.050781" y="1348.66406">29</tspan>  
        <tspan x="592.050781" y="1368.92578">28</tspan>  
        <tspan x="592.050781" y="1389.1875">27</tspan>  
        <tspan x="592.050781" y="1409.44922">26</tspan>  
        <tspan x="592.050781" y="1429.71094">25</tspan>  
        <tspan x="592.050781" y="1449.97266">24</tspan>  
        <tspan x="592.050781" y="1470.23438">23</tspan>  
        <tspan x="592.050781" y="1490.49609">22</tspan>  
        <tspan x="592.050781" y="1510.75781">21</tspan> 
      </text>  
      <text id="17-copy" font-size="8" line-spacing="20" fill="#000000"> 
        <tspan x="2636.05078" y="7">17</tspan>  
        <tspan x="2636.05078" y="27.2617188">16</tspan>  
        <tspan x="2636.05078" y="47.5234375">15</tspan>  
        <tspan x="2636.05078" y="67.7851562">14</tspan>  
        <tspan x="2636.05078" y="88.046875">13</tspan>  
        <tspan x="2636.05078" y="108.308594">12</tspan>  
        <tspan x="2636.34766" y="128.570312">11</tspan>  
        <tspan x="2636.05078" y="148.832031">10</tspan>  
        <tspan x="2638.27539" y="169.09375">9</tspan> 
      </text>  
      <text id="17-copy-7" font-size="8" line-spacing="20" fill="#000000"> 
        <tspan x="2119.05078" y="7">17</tspan>  
        <tspan x="2119.05078" y="27.2617188">16</tspan>  
        <tspan x="2119.05078" y="47.5234375">15</tspan>  
        <tspan x="2119.05078" y="67.7851562">14</tspan>  
        <tspan x="2119.05078" y="88.046875">13</tspan>  
        <tspan x="2119.05078" y="108.308594">12</tspan>  
        <tspan x="2119.34766" y="128.570312">11</tspan>  
        <tspan x="2119.05078" y="148.832031">10</tspan>  
        <tspan x="2121.27539" y="169.09375">9</tspan> 
      </text>  
      <text id="17-copy-2" font-size="8" line-spacing="20" fill="#000000"> 
        <tspan x="1927.05078" y="7">17</tspan>  
        <tspan x="1927.05078" y="27.2617188">16</tspan>  
        <tspan x="1927.05078" y="47.5234375">15</tspan>  
        <tspan x="1927.05078" y="67.7851562">14</tspan>  
        <tspan x="1927.05078" y="88.046875">13</tspan>  
        <tspan x="1927.05078" y="108.308594">12</tspan>  
        <tspan x="1927.34766" y="128.570312">11</tspan>  
        <tspan x="1927.05078" y="148.832031">10</tspan>  
        <tspan x="1929.27539" y="169.09375">9</tspan> 
      </text>  
      <text id="17-copy-6" font-size="8" line-spacing="20" fill="#000000"> 
        <tspan x="1430.05078" y="7">17</tspan>  
        <tspan x="1430.05078" y="27.2617188">16</tspan>  
        <tspan x="1430.05078" y="47.5234375">15</tspan>  
        <tspan x="1430.05078" y="67.7851562">14</tspan>  
        <tspan x="1430.05078" y="88.046875">13</tspan>  
        <tspan x="1430.05078" y="108.308594">12</tspan>  
        <tspan x="1430.34766" y="128.570312">11</tspan>  
        <tspan x="1430.05078" y="148.832031">10</tspan>  
        <tspan x="1432.27539" y="169.09375">9</tspan> 
      </text>  
      <text id="17" font-size="8" line-spacing="20" fill="#000000"> 
        <tspan x="0.05078125" y="7">17</tspan>  
        <tspan x="0.05078125" y="27.2617188">16</tspan>  
        <tspan x="0.05078125" y="47.5234375">15</tspan>  
        <tspan x="0.05078125" y="67.7851562">14</tspan>  
        <tspan x="0.05078125" y="88.046875">13</tspan>  
        <tspan x="0.05078125" y="108.308594">12</tspan>  
        <tspan x="0.34765625" y="128.570312">11</tspan>  
        <tspan x="0.05078125" y="148.832031">10</tspan>  
        <tspan x="2.27539062" y="169.09375">9</tspan> 
      </text>  
      <text id="17-copy-3" font-size="8" line-spacing="20" fill="#000000"> 
        <tspan x="1237.05078" y="7">17</tspan>  
        <tspan x="1237.05078" y="27.2617188">16</tspan>  
        <tspan x="1237.05078" y="47.5234375">15</tspan>  
        <tspan x="1237.05078" y="67.7851562">14</tspan>  
        <tspan x="1237.05078" y="88.046875">13</tspan>  
        <tspan x="1237.05078" y="108.308594">12</tspan>  
        <tspan x="1237.34766" y="128.570312">11</tspan>  
        <tspan x="1237.05078" y="148.832031">10</tspan>  
        <tspan x="1239.27539" y="169.09375">9</tspan> 
      </text>  
      <text id="17-copy-5" font-size="8" line-spacing="20" fill="#000000"> 
        <tspan x="740.050781" y="7">17</tspan>  
        <tspan x="740.050781" y="27.2617188">16</tspan>  
        <tspan x="740.050781" y="47.5234375">15</tspan>  
        <tspan x="740.050781" y="67.7851562">14</tspan>  
        <tspan x="740.050781" y="88.046875">13</tspan>  
        <tspan x="740.050781" y="108.308594">12</tspan>  
        <tspan x="740.347656" y="128.570312">11</tspan>  
        <tspan x="740.050781" y="148.832031">10</tspan>  
        <tspan x="742.275391" y="169.09375">9</tspan> 
      </text>  
      <text id="17-copy-4" font-size="8" line-spacing="20" fill="#000000"> 
        <tspan x="517.050781" y="7">17</tspan>  
        <tspan x="517.050781" y="27.2617188">16</tspan>  
        <tspan x="517.050781" y="47.5234375">15</tspan>  
        <tspan x="517.050781" y="67.7851562">14</tspan>  
        <tspan x="517.050781" y="88.046875">13</tspan>  
        <tspan x="517.050781" y="108.308594">12</tspan>  
        <tspan x="517.347656" y="128.570312">11</tspan>  
        <tspan x="517.050781" y="148.832031">10</tspan>  
        <tspan x="519.275391" y="169.09375">9</tspan> 
      </text>  
      <text id="8-copy-9" font-size="8" line-spacing="20" fill="#000000"> 
        <tspan x="2387.27539" y="258">8</tspan>  
        <tspan x="2387.27539" y="278.261719">7</tspan>  
        <tspan x="2387.27539" y="298.523438">6</tspan>  
        <tspan x="2387.27539" y="318.785156">5</tspan>  
        <tspan x="2387.27539" y="339.046875">4</tspan>  
        <tspan x="2387.27539" y="359.308594">3</tspan>  
        <tspan x="2387.27539" y="379.570312">2</tspan>  
        <tspan x="2387.27539" y="399.832031">1</tspan> 
      </text>  
      <text id="8-copy-6" font-size="8" line-spacing="20" fill="#000000"> 
        <tspan x="2640.27539" y="258">8</tspan>  
        <tspan x="2640.27539" y="278.261719">7</tspan>  
        <tspan x="2640.27539" y="298.523438">6</tspan>  
        <tspan x="2640.27539" y="318.785156">5</tspan>  
        <tspan x="2640.27539" y="339.046875">4</tspan>  
        <tspan x="2640.27539" y="359.308594">3</tspan>  
        <tspan x="2640.27539" y="379.570312">2</tspan>  
        <tspan x="2640.27539" y="399.832031">1</tspan> 
      </text>  
      <text id="8-copy-3" font-size="8" line-spacing="20" fill="#000000"> 
        <tspan x="2238.27539" y="258">8</tspan>  
        <tspan x="2238.27539" y="278.261719">7</tspan>  
        <tspan x="2238.27539" y="298.523438">6</tspan>  
        <tspan x="2238.27539" y="318.785156">5</tspan>  
        <tspan x="2238.27539" y="339.046875">4</tspan>  
        <tspan x="2238.27539" y="359.308594">3</tspan>  
        <tspan x="2238.27539" y="379.570312">2</tspan>  
        <tspan x="2238.27539" y="399.832031">1</tspan> 
      </text>  
      <text id="8-copy-8" font-size="8" line-spacing="20" fill="#000000"> 
        <tspan x="1725.27539" y="258">8</tspan>  
        <tspan x="1725.27539" y="278.261719">7</tspan>  
        <tspan x="1725.27539" y="298.523438">6</tspan>  
        <tspan x="1725.27539" y="318.785156">5</tspan>  
        <tspan x="1725.27539" y="339.046875">4</tspan>  
        <tspan x="1725.27539" y="359.308594">3</tspan>  
        <tspan x="1725.27539" y="379.570312">2</tspan>  
        <tspan x="1725.27539" y="399.832031">1</tspan> 
      </text>  
      <text id="8-copy" font-size="8" line-spacing="20" fill="#000000"> 
        <tspan x="1576.27539" y="258">8</tspan>  
        <tspan x="1576.27539" y="278.261719">7</tspan>  
        <tspan x="1576.27539" y="298.523438">6</tspan>  
        <tspan x="1576.27539" y="318.785156">5</tspan>  
        <tspan x="1576.27539" y="339.046875">4</tspan>  
        <tspan x="1576.27539" y="359.308594">3</tspan>  
        <tspan x="1576.27539" y="379.570312">2</tspan>  
        <tspan x="1576.27539" y="399.832031">1</tspan> 
      </text>  
      <text id="8-copy-7" font-size="8" line-spacing="20" fill="#000000"> 
        <tspan x="1063.27539" y="258">8</tspan>  
        <tspan x="1063.27539" y="278.261719">7</tspan>  
        <tspan x="1063.27539" y="298.523438">6</tspan>  
        <tspan x="1063.27539" y="318.785156">5</tspan>  
        <tspan x="1063.27539" y="339.046875">4</tspan>  
        <tspan x="1063.27539" y="359.308594">3</tspan>  
        <tspan x="1063.27539" y="379.570312">2</tspan>  
        <tspan x="1063.27539" y="399.832031">1</tspan> 
      </text>  
      <text id="8" font-size="8" line-spacing="20" fill="#000000"> 
        <tspan x="914.275391" y="258">8</tspan>  
        <tspan x="914.275391" y="278.261719">7</tspan>  
        <tspan x="914.275391" y="298.523438">6</tspan>  
        <tspan x="914.275391" y="318.785156">5</tspan>  
        <tspan x="914.275391" y="339.046875">4</tspan>  
        <tspan x="914.275391" y="359.308594">3</tspan>  
        <tspan x="914.275391" y="379.570312">2</tspan>  
        <tspan x="914.275391" y="399.832031">1</tspan> 
      </text>  
      <text id="8-copy-5" font-size="8" line-spacing="20" fill="#000000"> 
        <tspan x="401.275391" y="258">8</tspan>  
        <tspan x="401.275391" y="278.261719">7</tspan>  
        <tspan x="401.275391" y="298.523438">6</tspan>  
        <tspan x="401.275391" y="318.785156">5</tspan>  
        <tspan x="401.275391" y="339.046875">4</tspan>  
        <tspan x="401.275391" y="359.308594">3</tspan>  
        <tspan x="401.275391" y="379.570312">2</tspan>  
        <tspan x="401.275391" y="399.832031">1</tspan> 
      </text>  
      <text id="8-copy-2" font-size="8" line-spacing="20" fill="#000000"> 
        <tspan x="254.275391" y="258">8</tspan>  
        <tspan x="254.275391" y="278.261719">7</tspan>  
        <tspan x="254.275391" y="298.523438">6</tspan>  
        <tspan x="254.275391" y="318.785156">5</tspan>  
        <tspan x="254.275391" y="339.046875">4</tspan>  
        <tspan x="254.275391" y="359.308594">3</tspan>  
        <tspan x="254.275391" y="379.570312">2</tspan>  
        <tspan x="254.275391" y="399.832031">1</tspan> 
      </text>  
      <text id="8-copy-4" font-size="8" line-spacing="20" fill="#000000"> 
        <tspan x="0.275390625" y="258">8</tspan>  
        <tspan x="0.275390625" y="278.261719">7</tspan>  
        <tspan x="0.275390625" y="298.523438">6</tspan>  
        <tspan x="0.275390625" y="318.785156">5</tspan>  
        <tspan x="0.275390625" y="339.046875">4</tspan>  
        <tspan x="0.275390625" y="359.308594">3</tspan>  
        <tspan x="0.275390625" y="379.570312">2</tspan>  
        <tspan x="0.275390625" y="399.832031">1</tspan> 
      </text>  
      <text id="3-copy-3" font-size="8" line-spacing="20" fill="#000000"> 
        <tspan x="2543.27539" y="498">3</tspan>  
        <tspan x="2543.27539" y="518.261719">2</tspan>  
        <tspan x="2543.27539" y="538.523438">1</tspan> 
      </text>  
      <text id="3-copy-4" font-size="8" line-spacing="20" fill="#000000"> 
        <tspan x="2183.27539" y="498">3</tspan>  
        <tspan x="2183.27539" y="518.261719">2</tspan>  
        <tspan x="2183.27539" y="538.523438">1</tspan> 
      </text>  
      <text id="3" font-size="8" line-spacing="20" fill="#000000"> 
        <tspan x="97.2753906" y="498">3</tspan>  
        <tspan x="97.2753906" y="518.261719">2</tspan>  
        <tspan x="97.2753906" y="538.523438">1</tspan> 
      </text>  
      <text id="3-copy" font-size="8" line-spacing="20" fill="#000000"> 
        <tspan x="456.275391" y="498">3</tspan>  
        <tspan x="456.275391" y="518.261719">2</tspan>  
        <tspan x="456.275391" y="538.523438">1</tspan> 
      </text>  
      <text id="37-copy" font-size="8" line-spacing="20" fill="#000000"> 
        <tspan x="2351.55078" y="873.574219">37</tspan>  
        <tspan x="2351.55078" y="893.835938">36</tspan>  
        <tspan x="2351.55078" y="914.097656">35</tspan>  
        <tspan x="2351.55078" y="934.359375">34</tspan>  
        <tspan x="2351.55078" y="954.621094">33</tspan>  
        <tspan x="2351.55078" y="974.882812">32</tspan>  
        <tspan x="2351.55078" y="995.144531">31</tspan>  
        <tspan x="2351.55078" y="1015.40625">30</tspan>  
        <tspan x="2351.55078" y="1035.66797">29</tspan>  
        <tspan x="2351.55078" y="1055.92969">28</tspan>  
        <tspan x="2351.55078" y="1076.19141">27</tspan>  
        <tspan x="2351.55078" y="1096.45312">26</tspan>  
        <tspan x="2351.55078" y="1116.71484">25</tspan>  
        <tspan x="2351.55078" y="1136.97656">24</tspan>  
        <tspan x="2351.55078" y="1157.23828">23</tspan>  
        <tspan x="2351.55078" y="1177.5">22</tspan>  
        <tspan x="2351.55078" y="1197.76172">21</tspan>  
        <tspan x="2351.55078" y="1218.02344">20</tspan>  
        <tspan x="2351.55078" y="1238.28516">19</tspan>  
        <tspan x="2351.55078" y="1258.54688">18</tspan>  
        <tspan x="2351.55078" y="1278.80859">17</tspan>  
        <tspan x="2351.55078" y="1299.07031">16</tspan>  
        <tspan x="2351.55078" y="1319.33203">15</tspan>  
        <tspan x="2351.55078" y="1339.59375">14</tspan>  
        <tspan x="2351.55078" y="1359.85547">13</tspan>  
        <tspan x="2351.55078" y="1380.11719">12</tspan>  
        <tspan x="2351.84766" y="1400.37891">11</tspan>  
        <tspan x="2351.55078" y="1420.64062">10</tspan>  
        <tspan x="2353.77539" y="1440.90234">9</tspan>  
        <tspan x="2353.77539" y="1461.16406">8</tspan>  
        <tspan x="2353.77539" y="1481.42578">7</tspan>  
        <tspan x="2353.77539" y="1501.6875">6</tspan>  
        <tspan x="2353.77539" y="1521.94922">5</tspan>  
        <tspan x="2353.77539" y="1542.21094">4</tspan>  
        <tspan x="2353.77539" y="1562.47266">3</tspan>  
        <tspan x="2353.77539" y="1582.73438">2</tspan>  
        <tspan x="2353.77539" y="1602.99609">1</tspan> 
      </text> 
    </g>  
    <g id="Stage" transform="translate(1220.000000, 2067.000000)"> 
      <text id="Сцена" font-family="ArialMT, Arial" font-size="21" font-weight="normal" fill="#666666"> 
        <tspan x="104" y="31">Сцена</tspan> 
      </text>  
      <path d="M269.288702,9.82589046 C268.704069,9.73467333 268.011855,9.62892355 267.215027,9.5098527 C264.940067,9.16990294 262.282269,8.79121057 259.265364,8.38346868 C250.64854,7.21888393 240.880236,6.05444656 230.150281,4.9677119 C199.494547,1.86288535 167.271969,0 135,0 C102.728031,0 70.5054529,1.86288535 39.8497192,4.9677119 C29.1197645,6.05444656 19.3514605,7.21888393 10.7346356,8.38346868 C7.71773149,8.79121057 5.05993281,9.16990294 2.78497272,9.5098527 C1.98814493,9.62892355 1.29593112,9.73467333 0.71129815,9.82589046 C0.359692744,9.88074955 0.121604365,9.91865249 0,9.93838771 L0.347888322,12 C0.465158597,11.9809682 0.698883261,11.9437599 1.04609306,11.8895866 C1.6261521,11.7990832 2.31375998,11.694037 3.10594734,11.5756596 C5.37103051,11.2371858 8.01881402,10.8599204 11.0255411,10.4535539 C19.6190911,9.29211486 29.363479,8.13052841 40.0686141,7.0463075 C70.6559941,3.94840385 102.80709,2.08965109 135,2.08965109 C167.19291,2.08965109 199.344006,3.94840385 229.931386,7.0463075 C240.636521,8.13052841 250.380909,9.29211486 258.974459,10.4535539 C261.981186,10.8599204 264.628969,11.2371858 266.894053,11.5756596 C267.68624,11.694037 268.373848,11.7990832 268.953907,11.8895866 C269.301117,11.9437599 269.534841,11.9809682 269.652112,12 L270,9.93838771 C269.878396,9.91865249 269.640307,9.88074955 269.288702,9.82589046 Z" id="outline" fill="#E1E1DD"/> 
    </g> 
  </g> 
</svg>
